# xmcd
#
# Track frame offsets: 
#        150
#        15200
#        29195
#        44746
#        59466
#        73602
#        86904
#        100051
#        112336
#        124607
#        136229
#        148966
#        163146
#        178490
#        192644
#        205677
#        220543
#
# Disc length: 3117 seconds
#
# Revision: 0
# Processed by: cddbd v1.5.2PL0 Copyright (c) Steve Scherf et al.
# Submitted via: ExactAudioCopy v0.95b4
#
DISCID=0f0c2b11
DTITLE=Django Reinhardt - After You've Gone
DYEAR=1900
DGENRE=Blues
TTITLE0=Blue Moon
TTITLE1=Avalon
TTITLE2=What A Difference A Day Made
TTITLE3=Stardust
TTITLE4=Swanee River
TTITLE5=Avalon
TTITLE6=St. Louis Blues
TTITLE7=Run Mary, Run - Didn't It Rain
TTITLE8=Rosetta
TTITLE9=Stardust
TTITLE10=The Object Of My Affection
TTITLE11=I'se A Muggin
TTITLE12=I Can't Give You Anything But Love
TTITLE13=After You've Gone
TTITLE14=Nagasaki
TTITLE15=Georgia On My Mind
TTITLE16=Shine
EXTD=
EXTT0=
EXTT1=
EXTT2=
EXTT3=
EXTT4=
EXTT5=
EXTT6=
EXTT7=
EXTT8=
EXTT9=
EXTT10=
EXTT11=
EXTT12=
EXTT13=
EXTT14=
EXTT15=
EXTT16=
PLAYORDER=
